<?xml version="1.0" standalone="no"?>
<!DOCTYPE svg PUBLIC "-//W3C//DTD SVG 20010904//EN" "http://www.w3.org/TR/2001/REC-SVG-20010904/DTD/svg10.dtd">
<svg version="1.0" xmlns="http://www.w3.org/2000/svg"
  width="646.000000pt" height="555.000000pt" viewBox="0 0 646.000000 555.000000"
  preserveAspectRatio="xMidYMid meet">

  <g transform="translate(0.000000,555.000000) scale(0.100000,-0.100000)"
    fill="#163049" stroke="none">
    <path
      d="M2285 4597 c-3 -7 -4 -123 -3 -257 l3 -245 93 -3 92 -3 0 -33 c0 -31
-3 -34 -44 -45 -54 -13 -90 -53 -143 -161 -38 -76 -39 -77 -80 -81 -48 -5 -53
1 -53 62 l0 40 -122 -6 c-180 -9 -171 -5 -163 -70 l7 -55 -28 0 c-16 0 -69 -9
-118 -20 -160 -36 -166 -49 -178 -480 -5 -173 -6 -338 -3 -366 11 -95 -68 -87
781 -85 828 2 781 -2 810 66 11 27 14 102 14 362 0 323 -1 329 -24 379 -29 61
-92 117 -163 144 -30 11 -57 20 -61 20 -4 0 -20 28 -36 62 -17 33 -47 87 -67
118 -30 47 -45 60 -81 72 -37 13 -43 19 -46 46 l-3 31 93 3 93 3 0 255 0 255
-283 3 c-223 2 -284 0 -287 -11z m523 -69 c17 -17 16 -152 -2 -167 -9 -8 -82
-11 -242 -9 l-229 3 -3 79 c-2 44 -1 85 2 93 7 18 456 19 474 1z m-52 -807
c90 -42 148 -91 196 -165 90 -140 103 -307 35 -451 -48 -100 -118 -169 -222
-221 -77 -38 -81 -39 -189 -39 -135 0 -203 22 -293 94 -112 90 -173 217 -173
359 0 214 132 387 340 449 28 8 81 12 141 10 83 -3 105 -8 165 -36z m-861 -35
c19 -14 19 -15 1 -35 -53 -58 -215 -55 -193 4 16 39 151 61 192 31z" />
    <path d="M2465 3526 c-192 -91 -194 -355 -3 -450 163 -82 357 40 358 224 0
182 -191 304 -355 226z" />
    <path
      d="M3448 4223 c-15 -10 -32 -31 -38 -47 -6 -18 -10 -262 -10 -680 0
-628 1 -652 20 -683 12 -21 32 -36 57 -43 27 -8 235 -10 691 -8 l654 3 29 33
c35 39 35 53 9 205 -56 327 -203 604 -443 834 -236 225 -557 372 -867 397 -61
5 -80 3 -102 -11z" />
    <path
      d="M3590 2541 c-77 -24 -127 -70 -154 -143 -15 -38 -16 -110 -14 -665
l3 -623 27 -26 c21 -21 39 -28 81 -32 52 -4 57 -2 93 31 l39 35 5 224 c3 123
9 229 13 236 5 6 16 12 25 12 9 0 140 -124 292 -275 234 -233 281 -276 311
-281 43 -6 77 12 107 56 45 66 37 80 -193 310 -113 113 -205 213 -205 221 0
21 32 49 56 49 12 0 135 -116 324 -306 168 -168 318 -312 334 -321 64 -34 156
27 156 104 0 35 -16 53 -295 333 -301 302 -318 323 -283 358 29 29 55 9 253
-188 199 -197 203 -200 245 -200 34 0 48 6 76 34 45 45 47 96 5 152 -16 21
-128 138 -250 259 -122 121 -221 225 -221 232 0 19 37 53 57 53 9 0 76 -59
148 -130 106 -105 138 -132 166 -136 72 -11 139 67 119 137 -12 41 -403 438
-465 472 -39 21 -50 22 -435 24 -217 1 -406 -2 -420 -6z" />
    <path
      d="M1731 2519 c-36 -34 -41 -61 -30 -156 24 -192 95 -405 188 -562 231
-389 592 -639 1036 -717 122 -21 178 -19 212 10 l28 24 0 687 0 687 -28 24
-28 24 -678 0 c-674 0 -677 0 -700 -21z" />
  </g>
</svg>