<?xml version="1.0" standalone="no"?>
<!DOCTYPE svg PUBLIC "-//W3C//DTD SVG 20010904//EN" "http://www.w3.org/TR/2001/REC-SVG-20010904/DTD/svg10.dtd">
<svg version="1.0" xmlns="http://www.w3.org/2000/svg"
  width="1008.000000pt" height="544.000000pt" viewBox="0 0 1008.000000 544.000000"
  preserveAspectRatio="xMidYMid meet">

  <g transform="translate(0.000000,544.000000) scale(0.100000,-0.100000)"
    fill="#ffffff" stroke="none">
    <path
      d="M2005 4513 c-240 -31 -547 -169 -700 -317 -84 -80 -106 -49 388 -544
247 -249 446 -440 465 -448 27 -12 37 -12 65 0 47 20 883 863 891 899 11 45
-13 77 -109 150 -164 123 -379 215 -594 252 -77 14 -325 19 -406 8z" />
    <path
      d="M1024 3915 c-31 -21 -125 -149 -178 -240 -60 -104 -119 -264 -147
-395 -18 -84 -23 -138 -23 -270 -1 -242 36 -404 139 -615 61 -124 173 -280
222 -308 54 -31 82 -14 244 151 79 81 273 278 432 438 277 281 287 292 287
329 0 39 -10 50 -427 468 -236 236 -440 435 -455 443 -35 18 -68 18 -94 -1z" />
    <path
      d="M3265 3920 c-11 -4 -215 -203 -452 -442 l-433 -434 0 -44 0 -44 418
-419 c229 -229 434 -429 454 -443 30 -21 44 -25 72 -20 29 6 45 21 95 86 122
162 194 311 242 498 84 331 48 656 -107 963 -57 113 -153 251 -199 287 -29 23
-56 27 -90 12z" />
    <path
      d="M6137 3666 c-27 -7 -61 -22 -75 -33 -39 -28 -72 -99 -72 -154 0 -95
43 -152 167 -219 124 -67 157 -111 134 -173 -23 -61 -115 -74 -205 -28 l-57
28 -24 -42 c-14 -23 -25 -47 -25 -54 0 -19 101 -60 167 -67 176 -19 304 105
263 255 -16 60 -61 105 -164 166 -112 66 -138 91 -139 140 -2 78 98 112 188
64 38 -20 39 -20 53 -3 32 43 42 72 29 82 -54 43 -162 60 -240 38z" />
    <path
      d="M3901 3663 c1 -21 335 -727 345 -730 9 -3 327 667 342 720 4 15 -3
17 -59 17 l-64 0 -105 -241 c-57 -132 -107 -242 -111 -244 -3 -3 -54 104 -112
238 l-106 242 -65 3 c-36 2 -66 -1 -65 -5z" />
    <path
      d="M4900 3300 l0 -370 50 0 c49 0 50 1 50 30 0 34 11 38 31 13 20 -23
88 -53 125 -53 56 0 133 29 169 66 47 46 66 95 66 171 1 161 -84 250 -231 241
-58 -3 -76 -9 -115 -36 l-45 -32 0 170 0 170 -50 0 -50 0 0 -370z m306 -6 c21
-10 40 -31 54 -58 22 -47 25 -74 10 -128 -25 -88 -134 -119 -203 -58 -78 68
-63 207 26 245 42 19 72 18 113 -1z" />
    <path
      d="M7117 3663 c-4 -3 -7 -170 -7 -370 l0 -363 54 0 54 0 4 138 c3 121 6
141 26 173 23 37 73 69 110 69 32 0 62 -32 72 -75 5 -22 10 -100 10 -172 l0
-133 56 0 56 0 -4 173 c-3 156 -6 176 -27 221 -28 58 -64 76 -146 76 -62 0
-86 -9 -127 -48 l-28 -26 0 172 0 172 -48 0 c-27 0 -52 -3 -55 -7z" />
    <path d="M4656 3599 c-64 -51 -6 -145 73 -118 53 19 60 101 11 126 -35 18 -53
16 -84 -8z" />
    <path
      d="M5622 3387 c-48 -15 -107 -77 -126 -132 -48 -143 15 -284 143 -322
64 -18 167 -13 225 11 l37 15 -16 38 c-9 20 -17 39 -19 41 -2 2 -27 -4 -55
-14 -82 -26 -175 -3 -199 51 -7 14 -12 30 -12 35 0 5 71 11 163 12 l162 3 -2
68 c-3 140 -70 208 -203 206 -36 -1 -80 -6 -98 -12z m143 -92 c21 -8 39 -25
45 -40 21 -54 19 -55 -101 -55 l-111 0 7 27 c9 36 23 53 60 69 39 17 58 17
100 -1z" />
    <path
      d="M6690 3379 c-19 -11 -43 -31 -52 -42 -17 -22 -18 -22 -18 16 l0 37
-55 0 -55 0 0 -350 0 -350 55 0 55 0 0 151 0 151 30 -26 c109 -91 294 -37 341
100 16 48 17 157 1 205 -15 43 -66 97 -109 115 -51 22 -151 18 -193 -7z m147
-94 c36 -24 56 -79 51 -144 -4 -47 -10 -59 -41 -88 -86 -78 -217 -14 -217 105
0 63 24 107 73 132 47 23 93 22 134 -5z" />
    <path
      d="M7775 3380 c-159 -78 -172 -331 -21 -425 44 -27 57 -30 135 -30 86 0
171 19 171 38 0 6 -5 26 -12 44 -10 28 -16 33 -33 28 -111 -36 -193 -26 -225
28 -35 57 -35 57 140 57 l160 0 0 64 c0 105 -35 171 -107 202 -48 21 -160 17
-208 -6z m160 -84 c25 -11 36 -23 43 -48 5 -18 7 -36 5 -40 -2 -5 -51 -8 -109
-8 -88 0 -104 2 -104 16 0 26 20 54 53 74 38 24 66 25 112 6z" />
    <path
      d="M8362 3380 c-18 -11 -35 -27 -38 -35 -10 -25 -24 -17 -24 15 0 30 -1
30 -55 30 l-55 0 0 -230 0 -230 54 0 54 0 4 138 c2 85 9 146 17 160 18 33 70
62 112 62 34 0 37 2 43 38 11 70 10 72 -36 72 -25 0 -57 -8 -76 -20z" />
    <path
      d="M8652 3387 c-48 -15 -107 -77 -126 -132 -48 -143 15 -284 143 -322
64 -18 167 -13 225 11 l37 15 -16 38 c-9 20 -17 39 -19 41 -2 2 -27 -4 -55
-14 -82 -26 -175 -3 -199 51 -7 14 -12 30 -12 35 0 5 71 11 163 12 l162 3 -2
68 c-3 140 -70 208 -203 206 -36 -1 -80 -6 -98 -12z m143 -92 c21 -8 39 -25
45 -40 21 -54 19 -55 -101 -55 l-111 0 7 27 c9 36 23 53 60 69 39 17 58 17
100 -1z" />
    <path d="M4640 3160 l0 -230 60 0 60 0 0 230 0 230 -60 0 -60 0 0 -230z" />
    <path
      d="M8856 2457 c-11 -8 -17 -23 -14 -38 2 -19 9 -24 33 -24 24 0 31 5 33
23 3 22 -13 52 -27 52 -4 0 -15 -6 -25 -13z" />
    <path
      d="M6780 2415 c0 -38 -3 -45 -20 -45 -11 0 -20 -7 -20 -15 0 -8 9 -15
20 -15 19 0 20 -7 20 -100 l0 -100 35 0 35 0 0 99 0 100 37 3 c50 4 55 26 6
30 -37 3 -38 4 -41 46 -3 41 -4 42 -38 42 -34 0 -34 0 -34 -45z" />
    <path
      d="M8970 2295 c0 -131 3 -165 13 -165 8 0 19 11 26 24 l13 23 23 -23
c29 -28 89 -32 123 -8 69 48 67 177 -4 215 -30 16 -89 15 -109 -1 -13 -11 -15
-5 -15 44 l0 56 -35 0 -35 0 0 -165z m154 30 c36 -37 30 -125 -12 -153 -19
-13 -23 -11 -47 12 -17 18 -25 36 -25 61 0 74 46 118 84 80z" />
    <path
      d="M3910 2375 c0 -4 23 -58 50 -121 l51 -113 -21 -42 c-20 -38 -21 -69
-3 -69 13 0 67 106 117 228 25 62 46 115 46 117 0 3 -11 5 -24 5 -21 0 -27 -9
-46 -67 -13 -38 -26 -72 -30 -76 -4 -4 -21 25 -37 65 -30 70 -33 73 -67 76
-20 2 -36 0 -36 -3z" />
    <path
      d="M4212 2360 c-37 -23 -52 -54 -52 -112 0 -32 7 -47 34 -74 33 -33 57
-40 115 -35 89 8 139 105 94 182 -34 57 -129 77 -191 39z m112 -29 c25 -27 30
-81 12 -124 -12 -31 -20 -37 -44 -37 -36 0 -51 17 -59 64 -14 87 44 149 91 97z" />
    <path
      d="M4828 2354 l-26 -27 -11 22 c-7 11 -18 21 -26 21 -12 0 -15 -21 -15
-115 l0 -115 35 0 35 0 0 69 c0 117 32 161 76 106 l22 -28 17 33 c17 32 16 34
-1 47 -30 22 -77 16 -106 -13z" />
    <path
      d="M5175 2356 c-24 -24 -25 -24 -35 -5 -6 10 -17 19 -25 19 -12 0 -15
-21 -15 -115 l0 -115 35 0 35 0 0 83 c0 95 15 130 47 111 15 -9 19 -27 21
-103 l3 -91 33 0 33 0 5 84 c2 49 10 91 17 100 17 21 47 20 55 0 11 -29 6
-120 -10 -173 -8 -29 -13 -56 -9 -59 12 -13 41 16 68 68 33 65 38 155 9 190
-26 32 -91 38 -116 11 -19 -20 -19 -20 -44 -1 -34 27 -77 25 -107 -4z" />
    <path
      d="M5563 2365 c-42 -18 -66 -58 -66 -109 0 -51 23 -89 68 -110 119 -57
241 63 175 171 -35 58 -108 78 -177 48z m87 -25 c49 -26 44 -150 -7 -173 -23
-10 -28 -8 -49 16 -36 42 -30 133 10 159 15 10 24 10 46 -2z" />
    <path
      d="M5875 2356 c-24 -24 -25 -24 -35 -5 -6 10 -17 19 -25 19 -12 0 -15
-21 -15 -115 l0 -115 35 0 35 0 0 74 c0 88 12 126 39 126 26 0 31 -18 31 -116
l0 -84 40 0 40 0 0 83 c0 89 13 122 45 116 11 -2 22 -17 27 -34 8 -32 -6 -146
-23 -177 -11 -21 -4 -38 16 -38 21 0 64 79 76 143 10 48 9 60 -7 94 -15 30
-27 40 -57 47 -31 8 -42 6 -65 -11 -27 -20 -28 -20 -51 -2 -32 26 -77 24 -106
-5z" />
    <path
      d="M6257 2362 c-15 -10 -34 -27 -42 -38 -19 -25 -19 -97 0 -133 33 -64
142 -79 194 -26 21 21 23 27 12 35 -10 6 -24 1 -44 -16 -29 -25 -55 -25 -84
-2 -29 23 -13 36 48 40 49 4 66 9 80 27 25 31 24 64 -4 97 -31 36 -117 45
-160 16z m101 -28 c24 -17 29 -56 10 -72 -14 -11 -38 -15 -77 -13 -21 1 -23 4
-17 34 5 28 37 67 55 67 4 0 17 -7 29 -16z" />
    <path
      d="M6564 2355 c-21 -21 -29 -24 -35 -13 -5 7 -9 16 -9 21 0 4 -9 7 -20
7 -19 0 -20 -7 -20 -115 l0 -115 35 0 35 0 0 65 c0 85 20 135 54 135 47 0 60
-73 31 -184 -9 -33 -13 -61 -10 -65 12 -12 41 17 68 69 55 109 29 205 -60 217
-36 5 -45 2 -69 -22z" />
    <path
      d="M6990 2368 c-35 -19 -53 -59 -41 -91 8 -20 24 -30 68 -43 86 -26 102
-43 62 -64 -24 -14 -74 3 -88 29 -8 14 -12 14 -31 -4 l-22 -20 22 -17 c45 -36
143 -35 181 3 24 24 25 71 2 91 -10 9 -44 23 -75 32 -65 18 -79 33 -53 53 27
19 53 16 79 -10 22 -23 24 -23 45 -6 l22 18 -26 17 c-34 22 -113 29 -145 12z" />
    <path
      d="M7734 2366 c-45 -20 -74 -62 -74 -108 0 -84 61 -135 149 -125 112 13
151 152 61 218 -34 25 -98 32 -136 15z m75 -26 c43 -23 52 -120 15 -161 -24
-27 -49 -24 -74 9 -29 36 -24 117 10 144 26 21 26 21 49 8z" />
    <path
      d="M8360 2373 c-8 -3 -25 -14 -37 -25 -21 -20 -21 -20 -32 1 -7 12 -18
21 -26 21 -12 0 -15 -21 -15 -120 l0 -120 35 0 35 0 0 74 c0 121 31 167 75
112 l22 -27 16 25 c23 34 21 45 -9 56 -27 11 -41 11 -64 3z" />
    <path
      d="M9325 2366 c-44 -20 -66 -49 -72 -97 -11 -77 44 -139 124 -139 43 0
103 32 103 55 0 21 -17 19 -47 -5 -14 -11 -34 -20 -44 -20 -20 0 -59 33 -59
49 0 6 23 10 51 9 70 0 104 25 104 77 0 29 -6 42 -26 57 -33 25 -96 32 -134
14z m98 -47 c5 -9 7 -27 3 -42 -7 -28 -49 -44 -87 -32 -17 6 -19 12 -14 33 14
57 73 82 98 41z" />
    <path
      d="M4465 2318 c-8 -28 -15 -65 -15 -80 0 -92 92 -139 159 -83 30 26 30
26 41 5 6 -11 17 -20 25 -20 12 0 15 21 15 115 l0 115 -35 0 -35 0 0 -78 c0
-84 -16 -122 -50 -122 -34 0 -54 44 -46 103 3 29 9 62 12 75 6 19 3 22 -24 22
-29 0 -32 -4 -47 -52z" />
    <path
      d="M7413 2358 c3 -7 26 -61 52 -120 l47 -107 -25 -45 c-14 -25 -22 -47
-19 -50 16 -17 35 0 63 57 29 57 119 264 119 274 0 2 -12 3 -27 1 -23 -3 -29
-12 -47 -65 -12 -34 -24 -64 -27 -67 -3 -4 -20 25 -37 64 -30 68 -32 70 -67
70 -26 0 -36 -4 -32 -12z" />
    <path
      d="M7973 2338 c-11 -21 -17 -56 -17 -96 -1 -58 2 -66 27 -88 38 -32 86
-32 126 2 l31 26 11 -26 c7 -14 18 -26 26 -26 10 0 13 26 13 120 l0 120 -35 0
-35 0 0 -80 c0 -73 -2 -83 -25 -106 -52 -52 -86 11 -66 121 6 32 11 60 11 62
0 2 -11 3 -25 3 -17 0 -29 -9 -42 -32z" />
    <path
      d="M8611 2258 c22 -62 44 -117 48 -121 5 -5 21 -7 36 -5 24 3 31 14 71
113 24 60 44 113 44 117 0 4 -11 8 -24 8 -22 0 -27 -9 -51 -85 -14 -47 -27
-85 -30 -85 -2 0 -16 38 -31 85 l-28 85 -38 0 -37 0 40 -112z" />
    <path d="M8840 2250 l0 -120 35 0 35 0 0 120 0 120 -35 0 -35 0 0 -120z" />
    <path
      d="M2000 2315 c-192 -28 -388 -101 -548 -205 -167 -108 -211 -164 -178
-228 8 -16 210 -221 448 -456 425 -418 434 -426 473 -426 39 0 46 6 477 438
304 304 439 446 444 466 12 50 -7 78 -101 149 -98 73 -257 160 -373 201 -180
64 -447 90 -642 61z" />
    <path
      d="M7206 2194 c-20 -19 -20 -23 0 -62 19 -39 37 -41 52 -7 17 38 15 63
-7 75 -25 13 -27 13 -45 -6z" />
  </g>
</svg>